<?xml version="1.0" encoding="utf-8"?>
<!-- Generator: Adobe Illustrator 23.0.0, SVG Export Plug-In . SVG Version: 6.00 Build 0)  -->
<svg version="1.1" id="Layer_1" xmlns="http://www.w3.org/2000/svg" xmlns:xlink="http://www.w3.org/1999/xlink" x="0px" y="0px"
	 viewBox="0 0 612 792" style="enable-background:new 0 0 612 792;" xml:space="preserve">
<style type="text/css">
	.st0{fill:#6ACBDB;}
	.st1{fill:#F89521;}
	.st2{fill:#FFFFFF;}
</style>
<g>
	<g>
		<path class="st0" d="M260.15,375.4h7.77l3.77,15.19c0.4,1.69,0.71,3.29,0.94,4.81c0.23,1.52,0.45,2.96,0.67,4.31h0.18
			c0.21-1.35,0.44-2.78,0.67-4.31c0.23-1.52,0.54-3.13,0.94-4.81l3.88-15.19h7.61v39.25h-5.56v-12.98c0-1.99,0.02-3.91,0.06-5.75
			s0.09-3.53,0.15-5.07c0.06-1.54,0.13-2.9,0.21-4.08c0.08-1.18,0.15-2.11,0.21-2.8h-0.44l-5.93,25.62h-3.77l-5.98-25.62h-0.44
			c0.06,0.69,0.13,1.62,0.21,2.8c0.08,1.18,0.15,2.54,0.21,4.08c0.06,1.54,0.11,3.23,0.15,5.07s0.06,3.75,0.06,5.75v12.98h-5.56
			V375.4z"/>
		<path class="st0" d="M301.97,415c-0.63,0-1.31-0.05-2.05-0.15c-0.74-0.1-1.46-0.31-2.18-0.63c-0.72-0.32-1.41-0.78-2.08-1.37
			s-1.26-1.37-1.77-2.33c-0.51-0.97-0.92-2.16-1.23-3.57c-0.31-1.42-0.46-3.11-0.46-5.07v-13.9c0-1.98,0.16-3.67,0.47-5.07
			c0.31-1.4,0.73-2.58,1.25-3.54c0.52-0.96,1.11-1.72,1.78-2.29c0.67-0.57,1.36-1,2.09-1.3c0.73-0.3,1.45-0.49,2.17-0.59
			c0.72-0.09,1.39-0.14,2-0.14c0.58,0,1.23,0.04,1.94,0.13c0.71,0.08,1.42,0.27,2.14,0.55c0.71,0.28,1.41,0.7,2.08,1.26
			c0.67,0.56,1.27,1.32,1.79,2.27c0.52,0.96,0.94,2.15,1.25,3.56c0.31,1.42,0.47,3.13,0.47,5.14v13.9c0,1.95-0.16,3.62-0.48,5.02
			c-0.32,1.4-0.74,2.59-1.26,3.56c-0.52,0.97-1.12,1.75-1.8,2.34c-0.68,0.59-1.38,1.05-2.09,1.38c-0.71,0.33-1.42,0.55-2.13,0.65
			C303.17,414.95,302.54,415,301.97,415z M301.97,410.52c0.58,0,1.09-0.1,1.53-0.3c0.44-0.2,0.8-0.54,1.08-1.03
			c0.28-0.49,0.5-1.14,0.64-1.94c0.15-0.8,0.22-1.82,0.22-3.04v-17.86c0-1.26-0.07-2.31-0.22-3.15c-0.15-0.84-0.36-1.52-0.64-2.03
			c-0.28-0.51-0.64-0.88-1.08-1.09c-0.44-0.21-0.95-0.32-1.53-0.32c-0.6,0-1.12,0.11-1.56,0.32c-0.44,0.21-0.81,0.58-1.1,1.09
			c-0.29,0.51-0.51,1.19-0.65,2.03c-0.15,0.84-0.22,1.89-0.22,3.15v17.86c0,1.23,0.07,2.24,0.22,3.04c0.15,0.8,0.36,1.45,0.65,1.94
			c0.29,0.49,0.66,0.84,1.1,1.03C300.85,410.42,301.37,410.52,301.97,410.52z"/>
		<path class="st0" d="M314.36,375.4h6.09l4.32,31.09h0.25l4.34-31.09h6.07l-7.15,39.25h-6.8L314.36,375.4z"/>
		<path class="st0" d="M339.23,375.4h5.95v39.25h-5.95V375.4z"/>
		<path class="st0" d="M351.89,375.4h14.55v4.69h-8.6v11.74h6.64v4.69h-6.64v13.44h8.83v4.69h-14.78V375.4z"/>
		<path class="st1" d="M370.96,375.4h6.46c0.74,0,1.54,0.03,2.42,0.09c0.88,0.06,1.76,0.21,2.64,0.45c0.88,0.24,1.73,0.59,2.55,1.07
			c0.82,0.48,1.55,1.13,2.18,1.95c0.64,0.83,1.15,1.87,1.53,3.11c0.38,1.25,0.57,2.76,0.57,4.54v0.99c0,2.99-0.43,5.42-1.29,7.3
			c-0.86,1.88-2.12,3.23-3.79,4.06l6.3,15.7h-6.3l-5.22-14.69h-2.23v14.69h-5.84V375.4z M377.7,395.67c1.04,0,1.92-0.11,2.64-0.34
			c0.72-0.23,1.3-0.62,1.75-1.16c0.44-0.54,0.77-1.26,0.97-2.16c0.2-0.9,0.3-2,0.3-3.32v-3.1c0-1.01-0.09-1.88-0.28-2.62
			c-0.18-0.74-0.49-1.34-0.93-1.82c-0.44-0.47-1.02-0.83-1.73-1.06c-0.72-0.23-1.62-0.34-2.71-0.34h-0.9v15.93H377.7z"/>
		<path class="st1" d="M399.37,375.4h6.85l7.26,39.25h-6.02l-1.08-7.03h-7.17l-1.03,7.03h-6.04L399.37,375.4z M405.69,403.14
			l-2.76-19.56h-0.25l-2.78,19.56H405.69z"/>
		<path class="st1" d="M425.73,415c-0.61,0-1.28-0.05-1.99-0.15c-0.71-0.1-1.43-0.31-2.14-0.63c-0.71-0.32-1.39-0.78-2.05-1.37
			c-0.65-0.59-1.23-1.37-1.72-2.33c-0.5-0.97-0.9-2.16-1.2-3.57c-0.3-1.42-0.45-3.11-0.45-5.07v-13.9c0-1.98,0.15-3.67,0.46-5.07
			c0.31-1.4,0.71-2.58,1.22-3.54c0.51-0.96,1.09-1.72,1.75-2.29c0.66-0.57,1.34-1,2.05-1.3c0.7-0.3,1.41-0.49,2.1-0.59
			c0.7-0.09,1.34-0.14,1.94-0.14c1.56,0,2.87,0.22,3.92,0.65c1.05,0.44,1.89,1.03,2.53,1.79c0.64,0.76,1.09,1.64,1.36,2.65
			c0.27,1.01,0.4,2.08,0.4,3.22c0,0.84-0.04,1.62-0.13,2.33c-0.08,0.71-0.21,1.5-0.38,2.36h-4.83v-2c0-2.16-0.24-3.78-0.71-4.85
			c-0.48-1.07-1.17-1.61-2.09-1.61c-0.55,0-1.03,0.11-1.45,0.32c-0.41,0.21-0.76,0.58-1.03,1.09c-0.28,0.51-0.49,1.19-0.63,2.03
			c-0.15,0.84-0.22,1.89-0.22,3.15v17.93c0,1.23,0.06,2.24,0.17,3.06c0.11,0.81,0.3,1.46,0.56,1.95c0.26,0.49,0.6,0.84,1.02,1.05
			c0.42,0.21,0.93,0.31,1.53,0.31c0.38,0,0.75-0.09,1.1-0.26c0.35-0.18,0.66-0.45,0.93-0.83c0.27-0.38,0.48-0.85,0.64-1.42
			c0.16-0.57,0.24-1.25,0.24-2.03v-3.84h5.45v3.63c0,3.16-0.72,5.48-2.16,6.99C430.49,414.23,428.42,414.98,425.73,415z"/>
		<path class="st1" d="M438.78,375.4h5.95v17.14h0.18l6.8-17.14h5.93l-7.58,18.41l8.43,20.84h-6.37l-7.22-18.68h-0.18v18.68h-5.95
			V375.4z"/>
	</g>
	<g>
		<g>
			<path class="st2" d="M238.09,411.87l-16.07-6.18c-0.4-0.15-0.66-0.54-0.66-0.97V388c0-0.43,0.26-0.81,0.66-0.97l16.07-6.18
				c0.68-0.26,1.41,0.24,1.41,0.97v29.09C239.5,411.63,238.77,412.13,238.09,411.87z"/>
		</g>
		<g>
			<rect x="154.37" y="371.8" class="st2" width="5.58" height="48.85"/>
		</g>
		<g>
			<rect x="168.32" y="371.8" class="st2" width="5.58" height="48.85"/>
		</g>
		<g>
			<rect x="182.28" y="371.8" class="st2" width="5.58" height="48.85"/>
		</g>
		<g>
			<rect x="196.24" y="371.8" class="st2" width="5.58" height="48.85"/>
		</g>
		<g>
			<rect x="208.8" y="371.8" class="st2" width="5.58" height="48.85"/>
		</g>
	</g>
</g>
</svg>
